<svg xmlns="http://www.w3.org/2000/svg" width="25.766" height="21.114" viewBox="0 0 25.766 21.114">
  <g id="https:_www.flaticon.com_free-icon_cloud-computing_263138_term_download_page_1_position_38" data-name="https://www.flaticon.com/free-icon/cloud-computing_263138#term=download&amp;page=1&amp;position=38" transform="translate(0 -46.228)">
    <g id="Group_29" data-name="Group 29" transform="translate(0 46.228)">
      <g id="Group_28" data-name="Group 28" transform="translate(0 0)">
        <path id="Path_369" data-name="Path 369" d="M20.43,53.336A7.2,7.2,0,0,0,6.176,51.954H6.106a6.106,6.106,0,0,0,0,12.213H8.348a.55.55,0,0,0,0-1.1H6.106a5.007,5.007,0,1,1,0-10.015c.147,0,.3.008.475.024a.55.55,0,0,0,.6-.473,6.105,6.105,0,0,1,12.154.832c0,.121-.023.435-.023.435a.55.55,0,0,0,.6.585,4.383,4.383,0,0,1,.438-.022,4.317,4.317,0,1,1,0,8.634H17.89a.549.549,0,1,0,0,1.1h2.461a5.416,5.416,0,0,0,.08-10.831Z" transform="translate(0 -46.228)" fill="#f0542c"/>
      </g>
    </g>
    <g id="Group_31" data-name="Group 31" transform="translate(8.643 48.811)">
      <g id="Group_30" data-name="Group 30" transform="translate(0 0)">
        <path id="Path_370" data-name="Path 370" d="M176.32,97.548a4.635,4.635,0,0,0-4.575,3.994.55.55,0,1,0,1.089.149,3.532,3.532,0,0,1,3.486-3.044.55.55,0,0,0,0-1.1Z" transform="translate(-171.74 -97.548)" fill="#f0542c"/>
      </g>
    </g>
    <g id="Group_33" data-name="Group 33" transform="translate(10.332 58.376)">
      <g id="Group_32" data-name="Group 32" transform="translate(0 0)">
        <path id="Path_371" data-name="Path 371" d="M210.734,293.8a.55.55,0,0,0-.776-.044l-1.322,1.181v-6.76a.549.549,0,0,0-1.1,0v6.76l-1.322-1.181a.549.549,0,1,0-.732.82l2,1.786a.907.907,0,0,0,1.209,0l2-1.786A.55.55,0,0,0,210.734,293.8Z" transform="translate(-205.3 -287.628)" fill="#f0542c"/>
      </g>
    </g>
  </g>
</svg>
